<?xml version="1.0" standalone="no"?>
<!DOCTYPE svg PUBLIC "-//W3C//DTD SVG 20010904//EN"
 "http://www.w3.org/TR/2001/REC-SVG-20010904/DTD/svg10.dtd">
<svg version="1.0" xmlns="http://www.w3.org/2000/svg"
 width="600.000000pt" height="600.000000pt" viewBox="0 0 600.000000 600.000000"
 preserveAspectRatio="xMidYMid meet">
<metadata>
Created by potrace 1.11, written by Peter Selinger 2001-2013
</metadata>
<g transform="translate(0.000000,600.000000) scale(0.100000,-0.100000)"
fill="#000000" stroke="none">
<path d="M2336 5853 c-3 -3 72 -83 167 -177 l171 -171 1 -1085 0 -1085 -1089
-3 -1090 -2 -173 173 c-96 96 -175 171 -177 168 -2 -3 -4 -309 -4 -680 l-1
-675 179 179 179 179 1085 0 c717 1 1086 -2 1087 -9 1 -5 2 -495 3 -1088 l1
-1077 -172 -172 c-95 -95 -173 -175 -173 -178 0 -3 304 -5 675 -5 371 0 675 2
675 5 0 3 -78 83 -172 178 l-173 172 0 1085 c0 597 2 1085 5 1086 3 0 491 2
1085 3 l1080 1 175 -172 c97 -95 179 -173 183 -173 7 0 10 1334 2 1341 -2 3
-83 -73 -179 -168 l-174 -173 -1085 0 c-857 0 -1086 3 -1089 13 -3 6 -4 496
-3 1087 l1 1075 172 171 c95 95 172 174 172 177 0 7 -1336 7 -1344 0z"/>
<path d="M1487 5052 c-47 -92 -196 -387 -332 -657 -311 -615 -358 -697 -462
-804 -51 -53 -61 -69 -45 -73 4 0 98 -2 209 -3 229 -3 257 5 181 47 -62 34
-87 77 -84 141 6 95 33 169 165 440 l82 167 300 0 300 0 36 -77 c20 -43 48
-105 63 -138 15 -33 42 -91 59 -128 17 -38 31 -70 31 -71 0 -2 8 -21 17 -42 9
-22 17 -41 18 -44 1 -3 9 -31 19 -63 32 -106 23 -163 -31 -189 -16 -7 -28 -20
-28 -28 0 -13 36 -15 254 -15 182 0 255 3 258 11 2 7 -18 29 -45 50 -55 43
-116 128 -159 219 -15 33 -31 62 -35 63 -5 2 -8 9 -8 16 0 7 -24 62 -54 122
-54 109 -145 297 -261 539 -320 665 -326 678 -347 681 -13 1 -38 -40 -101
-164z m57 -194 c13 -29 67 -142 121 -251 53 -109 94 -202 90 -205 -7 -8 -495
-12 -508 -5 -4 3 -4 10 2 16 5 7 41 73 79 147 58 112 124 240 173 333 6 9 12
17 14 17 3 0 16 -24 29 -52z"/>
<path d="M3568 5169 c-14 -9 -3 -38 19 -46 41 -16 78 -72 88 -131 9 -55 9
-1064 0 -1133 -17 -132 -55 -221 -122 -284 -26 -25 -43 -48 -39 -52 4 -5 74
-9 154 -9 81 -1 169 -3 196 -4 77 -3 85 24 21 70 -43 30 -92 126 -101 195 -9
67 -11 1104 -2 1118 6 10 37 -49 93 -178 7 -16 25 -57 40 -90 15 -33 45 -100
67 -150 22 -49 53 -118 69 -153 16 -35 29 -65 29 -67 0 -3 16 -38 35 -80 20
-41 35 -77 36 -80 0 -2 14 -32 31 -67 16 -34 31 -66 33 -72 1 -6 14 -38 29
-71 47 -101 59 -130 58 -132 0 -1 16 -37 37 -80 21 -43 46 -100 56 -126 16
-42 21 -48 44 -45 29 3 53 45 150 263 54 120 83 183 160 348 22 49 41 91 41
93 0 4 36 84 96 212 24 51 44 95 44 97 0 2 18 43 41 92 78 167 92 198 94 203
8 30 50 110 57 110 12 0 9 -1118 -3 -1195 -14 -85 -43 -140 -84 -159 -41 -20
-50 -33 -36 -50 7 -9 25 -11 61 -6 27 4 135 5 240 4 128 -2 192 1 196 8 4 6
-11 27 -34 47 -34 31 -82 101 -68 101 3 0 0 15 -5 33 -30 102 -34 202 -34 767
1 536 2 590 16 590 4 0 10 9 14 19 3 11 22 29 41 41 64 37 35 46 -138 46
l-153 -1 -25 -50 c-14 -27 -42 -86 -62 -130 -20 -44 -57 -125 -83 -180 -26
-55 -53 -113 -60 -130 -29 -65 -89 -195 -132 -285 -25 -52 -56 -120 -70 -150
-14 -30 -38 -83 -54 -118 -16 -34 -29 -67 -29 -72 0 -6 -4 -10 -10 -10 -5 0
-9 -3 -8 -7 3 -14 -65 -154 -74 -151 -5 2 -37 64 -72 138 -35 74 -82 175 -105
224 -23 49 -55 116 -71 150 -31 68 -100 215 -220 471 -29 61 -70 151 -92 200
-22 50 -44 94 -48 99 -10 10 -336 14 -352 5z"/>
<path d="M4285 2513 c-266 -45 -533 -230 -652 -453 -30 -57 -61 -130 -70 -165
-42 -174 -36 -358 17 -515 74 -223 231 -397 456 -506 50 -25 100 -47 110 -49
10 -2 44 -11 74 -19 82 -23 193 -34 305 -31 87 3 131 8 245 29 91 17 265 95
368 165 l58 39 1 264 c0 302 2 310 73 345 122 60 101 66 -252 68 -167 1 -313
0 -325 -3 -37 -7 -26 -30 20 -43 149 -41 187 -60 212 -110 9 -16 13 -29 9 -29
-4 0 -2 -6 3 -12 13 -18 15 -384 2 -431 -10 -39 -63 -100 -112 -131 -23 -14
-134 -58 -144 -56 -2 0 -4 0 -5 -1 -16 -5 -71 -9 -153 -12 -361 -13 -632 203
-695 555 -25 135 -27 293 -6 433 39 268 191 482 389 553 281 99 586 35 764
-162 46 -51 60 -74 99 -159 15 -33 19 -36 31 -24 8 8 31 69 53 136 l38 121
-46 33 c-26 17 -49 32 -52 32 -3 1 -27 12 -55 27 -182 93 -548 147 -760 111z"/>
<path d="M775 2477 c-31 -11 -32 -22 -3 -45 55 -43 76 -73 86 -124 8 -36 11
-251 9 -673 -2 -573 -3 -623 -20 -660 -20 -44 -64 -95 -82 -95 -6 0 -22 -11
-35 -26 -32 -33 -16 -43 53 -36 52 5 375 6 667 2 233 -3 348 10 471 55 298
107 487 326 544 628 58 311 -41 603 -268 787 -114 92 -292 163 -467 186 -78
10 -924 11 -955 1z m876 -81 c267 -28 443 -153 506 -361 39 -125 44 -167 46
-340 1 -230 -23 -366 -90 -502 -81 -165 -240 -264 -465 -288 -79 -8 -271 -8
-361 0 -132 12 -164 51 -183 215 -6 54 -12 1238 -6 1262 2 9 11 18 20 20 29 6
469 1 533 -6z"/>
</g>
</svg>
